<svg width="202" height="59" viewBox="0 0 202 59" fill="none" xmlns="http://www.w3.org/2000/svg">
<path d="M139.5 30.6C140.1 29.6 139.3 29.5 138.9 29.4C130.7 29.2 123.8 34.2 119.1 38.3C118.9 38.5 119.1 38.8 119.3 38.6C124.2 34.7 129.3 33.5 135.9 32.8C137.6 32.6 138.8 31.7 139.5 30.6Z" fill="#DB5009"/>
<path d="M141.7 23.7C142.3 22.6 141.4 22.6 141 22.6C132.8 23 125.9 28.4 121.5 32.8C121.3 33 121.5 33.3 121.8 33.1C126.4 28.8 131.3 27.4 137.8 26.2C139.4 25.9 141.1 24.8 141.7 23.7Z" fill="#DB5009"/>
<path d="M143.4 17C143.9 15.9 143.1 15.9 142.6 15.9C134.4 16.6 127.4 22.3 123.2 26.8C123 27 123.2 27.3 123.5 27.1C128 22.7 132.8 21 139.3 19.6C141 19.3 142.9 18.2 143.4 17Z" fill="#DB5009"/>
<path d="M135.4 12.9C135.8 11.8 134.6 12 133.9 12.4C131.3 14.1 129.6 15.9 125.5 20.5C125.3 20.7 125.6 21 125.8 20.8C129.7 17 131.6 16.8 133.3 15.7C134.7 14.8 134.9 14 135.4 12.9Z" fill="#DB5009"/>
<path d="M168.5 38.7C163.6 36.4 159 34.7 153.6 33.4C153.3 33.3 153.3 33 153.7 33C157 32.9 165.4 34.5 172.1 36.5C180.4 38.9 187.6 43.3 190.4 43.8C190.7 43.9 190.6 44.1 190.4 44.1C183.6 46.1 174.9 41.6 168.5 38.7Z" fill="#938874"/>
<path d="M172.2 31.4C167.2 29.4 161.9 27.8 156.4 26.8C156.1 26.7 156 26.4 156.5 26.4C159.7 26.1 168.8 27.3 175.7 28.9C184.1 30.9 191.7 34.9 194.5 35.3C194.8 35.3 194.7 35.6 194.5 35.6C187.8 37.8 178.8 34.1 172.2 31.4Z" fill="#938874"/>
<path d="M175.1 23.8C169.9 22.2 164.5 21.1 159 20.5C158.7 20.5 158.6 20.2 159.1 20.1C162.3 19.5 171.2 20.3 178.1 21.4C186.7 22.7 195.1 26.4 198 26.6C198.3 26.6 198.3 26.8 198.1 26.9C191.4 29.4 181.9 25.9 175.1 23.8Z" fill="#938874"/>
<path d="M180.8 16.8C175.6 15.2 176.5 15.1 171 14.5C170.7 14.5 170.6 14.1 171.1 14.1C174.9 13.8 178.2 13.9 185.1 14.9C193.7 16.2 198.7 18.1 201.6 18.3C201.9 18.3 201.9 18.5 201.6 18.6C195 21.2 187.6 18.9 180.8 16.8Z" fill="#938874"/>
<path d="M137.9 9.99999C137.7 10.1 137.5 9.79999 137.7 9.69999C141 7.39999 159.5 -7.00001 185.7 6.59999C185.9 6.69999 185.8 6.99999 185.6 6.99999C169.9 3.69999 153 1.79999 137.9 9.99999Z" fill="#DB5009"/>
<path fill-rule="evenodd" clip-rule="evenodd" d="M44.8 29H43.6C43.5 30 43.5 31.2 43.4 32.7H44.6C44.6 31.3 44.6 30.1 44.8 29ZM46.4 29H45.3C45.1 30.3 45.1 31.5 45.2 32.7H46.4C46.3 31.3 46.3 30.1 46.4 29ZM41.9 29C41.6 30.4 41.3 31.6 40.8 32.7H42.3C42.6 31.8 42.9 30.6 43.2 29H41.9ZM56.4 29H55.2C55.1 30 55.1 31.2 55 32.7H56.2C56.2 31.3 56.2 30.1 56.4 29ZM58 29H56.9C56.8 30.3 56.7 31.5 56.8 32.7H58C57.9 31.3 57.9 30.1 58 29ZM53.5 29C53.2 30.4 52.9 31.6 52.4 32.7H53.9C54.2 31.8 54.5 30.6 54.8 29H53.5ZM27.1 41.7H13.5C13.1 41.7 13 41.5 13 41.1L13.7 36C13.8 35.5 14.1 35.2 14.5 35.2H27.9C28.3 35.2 28.6 35.5 28.5 36L27.8 41.1C27.7 41.4 27.3 41.7 27.1 41.7ZM30.1 24H27.5C28.1 25.6 28.8 27.3 29.6 29.1H14L21.5 21.7H18.3L10.7 29.1C9.79998 30 10.5 30.8 11.2 30.8H28.7L29.8 29.5C30.1 30.1 30.4 30.6 30.6 30.8H33.7C32.1 28.7 30.9 26.4 30.1 24ZM30.8 35.7C31 34.5 30.2 33.3 28.9 33.3H13.9C12.6 33.3 11.4 34.4 11.3 35.6L10.6 41.3C10.4 42.7 11.2 43.6 12.5 43.6H27.7C29 43.6 29.9 42.6 30.1 41.2L30.8 35.7ZM39.7 21.6H37.4C37.7 23.3 38.3 25.1 38.9 26.9H41.4C40.5 25.1 39.9 23.3 39.7 21.6ZM52.9 25.1H48L47.8 26.4H52.7L52.9 25.1ZM52.7 27H47.7L47.5 28.3H52.5L52.7 27ZM50.3 31.4H49C48.7 31.4 48.7 31.3 48.7 31L48.8 30.6C48.8 30.3 48.9 30.2 49.2 30.2H50.5C50.7 30.2 50.8 30.3 50.8 30.6L50.6 31C50.6 31.3 50.5 31.4 50.3 31.4ZM52.5 30.3C52.6 29.4 52.3 29 51.4 29H48.6C47.6 29 47.1 29.4 47 30.3L46.8 31.4C46.7 32.2 47.1 32.6 47.9 32.6H50.8C51.6 32.6 52.1 32.2 52.2 31.4L52.5 30.3ZM56.5 40.6C56.6 39.7 56.2 39 55.1 39H43.1C42.8 39 42.7 38.8 42.7 38.6L42.8 38.2C42.8 37.8 43 37.8 43.3 37.8H54.9C55.9 37.8 56.7 37.2 56.8 36.2L56.9 35.1C57 34.1 56.5 33.6 55.4 33.6H41.5L41.3 35.1H54.1C54.4 35.1 54.5 35.3 54.5 35.5V35.8C54.5 36 54.2 36.3 54 36.3H42.8C41.5 36.3 40.8 36.8 40.6 38L40.5 38.9C40.4 39.9 40.9 40.5 42 40.5H53.9C54.2 40.5 54.3 40.8 54.3 41L54.2 41.6C54.2 41.9 53.9 42 53.7 42H40.4L41.2 43.6H54.4C55.5 43.6 56.3 42.7 56.4 42L56.5 40.6ZM37.9 34.3C37.3 37 36.1 40.3 34.4 43.6H36.9C38.1 40.7 39.2 37.4 40.1 34.3H37.9ZM38.8 27.8H36.5C36.8 29.6 37.3 30.9 38 32.7H40.4C39.6 30.8 39.1 29.4 38.8 27.8ZM58.2 25.9C58.2 26.8 58.3 27.6 58.6 28.4H57.2C57.2 28.2 57.1 27.9 57 27.4L56.2 28.4H53.7C53.1 28.4 52.8 28.1 52.9 27.6C52.9 27.3 53.3 26.9 53.9 26.4C54.5 25.8 54.9 25.4 55.2 25.1H54.4C53.9 25.1 53.6 24.9 53.5 24.4H47.5L47.6 23.9C45.8 25.5 44.6 26.6 43.9 27.2H45.7C45.6 26.7 45.6 26.2 45.6 26H46.9C46.9 26.9 47 27.7 47.3 28.5H45.8C45.7 28.1 45.7 27.8 45.6 27.6L44.9 28.5H42C41.5 28.5 41.3 28 41.3 27.7C41.3 27.5 41.6 27.3 41.9 26.9C42.3 26.6 42.9 26 43.8 25.2H42.6C41.8 25.2 41.6 24.4 42.2 23.7C42.4 23.5 43.2 22.8 44.4 21.6H46.6C45.7 22.5 44.8 23.3 44 24H45.1C45.5 23.6 45.7 23.4 45.8 23.3H47.4L47.5 22.9H49.5L49.7 21.6H51.9L51.7 22.9H53.8L53.7 23.6C54.3 23.1 54.9 22.4 55.7 21.6H57.6C56.9 22.4 56.1 23.2 55.3 24H56.3C56.8 23.6 57.1 23.3 57.4 22.9H59.4C57.9 24.5 56.4 25.9 55.1 27.1H56.9C56.8 26.7 56.8 26.2 56.8 25.9H58.2V25.9ZM78.7 29.8H67C66.6 29.8 66.5 29.6 66.6 29.3L66.7 28.4C66.8 28 67 27.8 67.3 27.8H78.9C79.3 27.8 79.5 28.1 79.5 28.4L79.4 29.2C79.3 29.6 79.1 29.8 78.7 29.8ZM81.8 28.2C82 26.9 81.3 26.3 80 26.3H66.5C65.5 26.3 64.6 27 64.4 28.1L64.2 29.6C64.1 30.5 64.6 31.5 65.8 31.5H79.3C80.7 31.5 81.5 30.8 81.7 29.5L81.8 28.2ZM82.7 35.3C82.9 33.7 82.2 32.9 80.6 32.9H64.5C63 32.9 62 33.6 61.8 35.1L60.7 43.7H63L64.1 35.1C64.1 34.7 64.4 34.5 64.7 34.5H79.7C80.1 34.5 80.3 34.8 80.2 35.1L79.4 41.3C79.3 41.8 79.1 42 78.6 42H75.4L75.9 43.7H79.1C80.7 43.7 81.6 42.7 81.8 41.3L82.7 35.3ZM78.8 37.8C79 36.6 78.2 35.9 77 35.9H67.2C66.1 35.9 65.3 36.7 65.1 37.6L64.9 39C64.7 40.3 65.3 41 66.7 41H76.1C77.6 41 78.4 40.3 78.6 39L78.8 37.8ZM75.8 39.4H67.6C67.2 39.4 67.1 39.2 67.2 38.9L67.3 37.9C67.3 37.6 67.5 37.4 67.9 37.4H76C76.4 37.4 76.6 37.6 76.6 38L76.5 38.8C76.4 39.2 76.2 39.4 75.8 39.4ZM100.9 31.9H98.7C98.4 31.9 98.3 31.7 98.3 31.5L98.4 30.9C98.4 30.7 98.6 30.5 98.9 30.5H101.1C101.4 30.5 101.5 30.7 101.5 30.9L101.4 31.4C101.3 31.7 101.2 31.9 100.9 31.9ZM110.3 26.4H106.8C107 24.7 107.1 23.2 107.4 21.6H105.4L104.8 26.4H101.6L101.8 25H104.3L104.5 23.4H102L102.2 21.6H100L99.8 23.4H97.4L97.2 25H99.6L99.4 26.4H96.7L96.5 28.1H104.6C104.1 33.3 103.9 36.9 103.9 38.5C103.5 39.1 103 39.8 102.4 40.5C102 40.6 101 40.8 99.7 40.9L99.9 39.4H102.3L102.5 37.7H100.1L100.3 36H103L103.2 34.4H95.8L95.6 36H98.1L97.9 37.7H95.8L95.6 39.4H97.7L97.5 41.2C96.6 41.3 95.7 41.4 94.8 41.4L94.6 43.2C96.4 43 98.4 42.8 100.7 42.5C100.2 42.9 99.8 43.4 99.4 43.7H102C102.6 43.1 103.3 42.3 104.1 41.3L104.2 42.3C104.2 42.9 105 43.7 106.2 43.7H107.8L108.7 41.9H107C106.5 41.9 106.2 41.7 106.2 41.4C106.1 41 106.1 40.3 106.1 38.8C107.8 36.2 109.2 32 110.1 28.9H108.1C107.8 30.5 106.9 33.1 106.1 34.9C106.1 32.9 106.5 30.8 106.8 28H110.2L110.3 26.4ZM95.2 23.1C95.1 22.4 94.6 22 93.9 22H92.5C91.8 22 91.2 22.3 90.8 23.1C90 25.2 89 27 87.7 28.6H89.3L89.1 29.7H90.9L90.6 32.1H87.8L87.6 33.8H90.4L89.4 41.2C88.5 41.4 87.5 41.6 86.4 41.9L86.2 43.7C88.1 43.3 90.8 42.6 94.2 41.6L94.4 39.8C93.1 40.2 92.3 40.5 91.6 40.6L92.5 33.8H95.2L95.4 32.1H92.7L93 29.7H95L95.2 27.9H90.5C91.3 26.8 91.9 25.5 92.6 24C92.7 23.7 92.9 23.6 93.1 23.6C93.2 23.6 93.4 23.7 93.4 23.9C93.4 24.8 93.7 25.9 94.1 27.4H96.5C95.8 26.1 95.4 24.7 95.2 23.1ZM110.1 22.6H108.1C108.1 23.4 108.2 24.3 108.3 25.6H110.4C110.1 24.1 110.1 23.4 110.1 22.6ZM103.6 30.5C103.7 29.7 103.1 28.9 102.3 28.9H98.2C97.3 28.9 96.4 29.5 96.3 30.4L96.1 31.7C96 32.7 96.5 33.4 97.4 33.4H101.5C102.3 33.4 103.2 32.7 103.3 31.9L103.6 30.5ZM93.5 35C93 36.7 92.5 38.1 92.2 39.1H94C94.6 37.5 95.1 36.1 95.4 35H93.5ZM89 35H87.2C87 36.3 87 38 87.1 39.9H89.1C89 37.8 88.9 36.2 89 35ZM84.8 23.3L84.6 25H62.6L62.8 23.3H72.7L72.9 21.6H75.1L74.9 23.3H84.8Z" fill="#595757"/>
<path fill-rule="evenodd" clip-rule="evenodd" d="M8.09998 49H0.399981L0.199982 50.3H3.19998L1.99998 58.5H3.39998L4.59998 50.3H7.39998L8.09998 49Z" fill="#595757"/>
<path fill-rule="evenodd" clip-rule="evenodd" d="M14.1 58.5L11.8 49.8H10.8L5.99998 58.5H7.49998L8.69999 56.3H12L12.6 58.5H14.1ZM11.8 55.2H9.39999L10.6 52.9C10.8 52.5 11 52.2 11.1 51.9C11.1 52.2 11.2 52.5 11.3 53L11.8 55.2Z" fill="#595757"/>
<path fill-rule="evenodd" clip-rule="evenodd" d="M17 58.5L18.2 49.9H16.8L15.5 58.5H17Z" fill="#595757"/>
<path fill-rule="evenodd" clip-rule="evenodd" d="M32 49.9H30.5L28 55.2C27.8 55.7 27.6 56 27.5 56.5C27.4 56.1 27.3 55.7 27.2 55.2L26 49.9H24.5L24.9 51.5L23 55.3C22.8 55.7 22.6 56.1 22.4 56.6C22.3 56.2 22.2 55.8 22.2 55.3L21.1 49.9H19.5L21.4 58.5H22.6L24.7 54.5C24.9 54.1 25.1 53.7 25.3 53.2C25.4 53.7 25.5 54.1 25.6 54.5L26.5 58.5H27.7L32 49.9Z" fill="#595757"/>
<path fill-rule="evenodd" clip-rule="evenodd" d="M37.8 58.5L35.5 49.8H34.5L29.7 58.5H31.2L32.4 56.3H35.7L36.3 58.5H37.8ZM35.4 55.2H33L34.2 52.9C34.4 52.5 34.6 52.2 34.7 51.9C34.7 52.2 34.8 52.5 34.9 53L35.4 55.2Z" fill="#595757"/>
<path fill-rule="evenodd" clip-rule="evenodd" d="M46.9 58.5L48.2 49.9H46.8L46 55.1C45.9 55.5 45.9 56 45.9 56.3C45.7 55.9 45.5 55.6 45.1 55L41.8 49.9H40.3L39 58.5H40.4L41.2 53.1C41.3 52.7 41.3 52.3 41.3 52C41.5 52.4 41.7 52.7 42 53.2L45.5 58.5H46.9Z" fill="#595757"/>
<path fill-rule="evenodd" clip-rule="evenodd" d="M59.6 58.5L61 49H59.6L59 53.1H53.8L54.4 49H53L51.6 58.5H53L53.6 54.3H58.8L58.2 58.5H59.6Z" fill="#595757"/>
<path fill-rule="evenodd" clip-rule="evenodd" d="M63.1 58.5L64.4 49.9H63L61.7 58.5H63.1Z" fill="#595757"/>
<path fill-rule="evenodd" clip-rule="evenodd" d="M72.9 57.9L73.4 54.2H72L71.6 57.2C71.2 57.4 70.7 57.5 70 57.5C67.9 57.5 66.8 56.3 67.1 54.3C67.4 52.5 68.7 51.1 71 51.1C72 51.1 72.8 51.4 73.4 51.7L73.6 50.4C73 50.2 72.2 49.9 71.1 49.9C68.2 49.9 65.9 51.8 65.5 54.4C65.1 56.9 66.6 58.7 69.5 58.7C70.9 58.6 72.1 58.3 72.9 57.9Z" fill="#595757"/>
<path fill-rule="evenodd" clip-rule="evenodd" d="M82.2 58.5L83.5 49.9H82.1L81.5 53.5H77L77.5 49.9H76.1L74.8 58.5H76.2L76.8 54.7H81.3L80.8 58.5H82.2Z" fill="#595757"/>
<path fill-rule="evenodd" clip-rule="evenodd" d="M92.9 56C93.3 53.1 89 53.2 89.2 51.3C89.3 50.5 90.1 50.2 91 50.2C91.8 50.2 92.5 50.5 93.2 50.9L93.4 49.5C92.9 49.2 92.2 49 91.1 49C89.1 49 87.9 50.2 87.7 51.5C87.6 52.2 87.8 52.7 88.1 53.1C89.1 54.4 91.4 54.7 91.2 56.2C91.1 57.1 90 57.5 89.2 57.5C88.3 57.5 87.5 57.1 87.1 56.8L86.3 57.9C86.9 58.3 87.7 58.7 89.1 58.7C91.1 58.7 92.7 57.6 92.9 56Z" fill="#595757"/>
<path fill-rule="evenodd" clip-rule="evenodd" d="M100.5 52.6C100.8 50.8 99.7 49.9 97.7 49.9H95.6L94.3 58.5H95.7L96.1 55.5H96.5C99.2 55.5 100.3 54.1 100.5 52.6ZM99.1 52.7C99 53.7 98.3 54.4 97.1 54.4H96.5L97 51.1H97.6C98.7 51.1 99.2 51.7 99.1 52.7Z" fill="#595757"/>
<path fill-rule="evenodd" clip-rule="evenodd" d="M106 58.5L106.2 57.3H102.8L103.2 54.7H106.1L106.3 53.5H103.4L103.7 51.1H106.7L107.3 49.9H102.5L101.2 58.5H106Z" fill="#595757"/>
<path fill-rule="evenodd" clip-rule="evenodd" d="M112.9 58.5L113 57.3H109.6L110 54.7H112.9L113.1 53.5H110.2L110.5 51.1H113.5L114.1 49.9H109.3L108 58.5H112.9Z" fill="#595757"/>
<path fill-rule="evenodd" clip-rule="evenodd" d="M122.8 54.1C123.2 51.6 121.8 49.9 118.5 49.9H116L114.7 58.5H117.1C120.4 58.5 122.4 56.7 122.8 54.1ZM121.3 54.1C121.1 55.8 119.9 57.3 117.4 57.3H116.3L117.2 51H118.3C120.6 51.1 121.5 52.4 121.3 54.1Z" fill="#595757"/>
<path fill-rule="evenodd" clip-rule="evenodd" d="M132.7 58.5C131.5 56.1 130.7 54.4 130.3 54.2C131.5 53.8 132.4 53 132.5 51.7C132.7 50.3 131.9 49 129.4 49H127.2L125.8 58.5H127.2L127.8 54.7H128.7C129.2 54.7 129.8 56 131 58.5H132.7ZM131 51.8C130.9 52.7 130 53.4 129 53.4H128L128.5 50.3H129.4C130.7 50.3 131.1 51 131 51.8Z" fill="#595757"/>
<path fill-rule="evenodd" clip-rule="evenodd" d="M141.5 58.5L139.2 49.8H138.2L133.4 58.5H134.9L136.1 56.3H139.4L140 58.5H141.5ZM139.3 55.2H136.9L138.1 52.9C138.3 52.5 138.5 52.2 138.6 51.9C138.6 52.2 138.7 52.5 138.8 53L139.3 55.2Z" fill="#595757"/>
<path fill-rule="evenodd" clip-rule="evenodd" d="M144.5 58.5L145.7 49.9H144.3L143 58.5H144.5Z" fill="#595757"/>
<path fill-rule="evenodd" clip-rule="evenodd" d="M151.3 58.5L151.5 57.3H148.2L149.3 49.9H147.9L146.6 58.5H151.3V58.5Z" fill="#595757"/>
</svg>
